<svg xmlns="http://www.w3.org/2000/svg" xmlns:xlink="http://www.w3.org/1999/xlink" version="1.1" id="Your_Icon" x="0px" y="0px" width="100px" height="100px" viewBox="0 0 100 100" enable-background="new 0 0 100 100" xml:space="preserve">
<path fill="#000000" d="M93.529,20.065c1.371-1.509,1.259-3.853-0.251-5.225L79.52,2.332c-0.684-0.619-1.565-0.96-2.486-0.96  c-1.042,0-2.041,0.44-2.741,1.21L47.797,31.729L21.151,1.095L4.906,15.221L33.217,47.77L9.089,74.311l-0.126,0.258  c-0.566,1.143-1.246,4.741-3.03,16.046l-0.011,0.069c-0.345,2.188-0.644,4.077-0.816,5.021l-0.572,3.159l3.108-0.804  c4.244-1.098,18.054-5.089,20.148-5.966l0.42-0.175l22.183-24.404l27.355,31.453l16.244-14.128l-29.02-33.363L93.529,20.065z   M77.059,5.648l13.153,11.957l-3.958,4.355L73.1,10.003L77.059,5.648z M70.251,13.137l13.153,11.957l-1.405,1.547L68.844,14.684  L70.251,13.137z M66.081,17.724l13.154,11.957l-1.49,1.641L64.589,19.364L66.081,17.724z M61.826,22.403L74.98,34.361l-1.49,1.641  L60.335,24.044L61.826,22.403z M20.755,6.739l24.332,27.972l-9.065,9.973l-0.802-0.915l1.764-1.535l-0.989-1.137l-1.77,1.538  l-0.967-1.102l5.082-4.418l-0.988-1.136L32.265,40.4l-0.966-1.102l1.783-1.551l-0.989-1.137l-1.789,1.555l-0.965-1.101l1.792-1.561  l-0.989-1.136l-1.796,1.563l-0.968-1.103l1.802-1.567l-0.99-1.135l-1.806,1.57l-0.967-1.104l1.812-1.575l-0.99-1.134l-1.815,1.579  l-0.967-1.103l1.819-1.582l-0.989-1.137l-1.824,1.587l-0.967-1.103l3.249-2.826l-0.988-1.135l-3.254,2.828l-0.966-1.102l1.838-1.599  l-0.989-1.134l-1.842,1.601l-0.968-1.104l1.847-1.605l-0.989-1.134l-1.85,1.609l-0.966-1.103l1.865-1.62l-0.989-1.136l-1.869,1.624  l-0.967-1.102l1.873-1.63l-0.988-1.137l-1.878,1.633l-0.967-1.102l1.882-1.638l-0.988-1.136l-1.887,1.641l-0.171-0.195L20.755,6.739  z M14.125,91.994l-3.716-3.377c0.536-3.365,1.229-7.613,1.747-10.185l11.722,10.656C21.374,89.877,17.467,91.032,14.125,91.994z   M27.383,86.723L14.229,74.766L57.57,27.084l13.156,11.958L27.383,86.723z M88.348,84.447l-10.2,8.871l-0.118-0.133l1.868-1.625  l-0.988-1.137l-1.864,1.621l-0.957-1.105l1.86-1.62l-0.988-1.136L75.101,89.8l-0.959-1.109l1.857-1.612l-0.991-1.136l-1.851,1.61  l-0.959-1.108l1.849-1.608L73.061,83.7l-1.847,1.604l-0.959-1.108l1.843-1.603l-0.988-1.136l-1.842,1.6l-0.961-1.111l3.258-2.834  l-0.988-1.139l-3.254,2.833l-0.957-1.105l1.831-1.593l-0.986-1.137l-1.831,1.591l-0.959-1.109l1.825-1.588l-0.989-1.137  l-1.821,1.586l-0.957-1.108l1.817-1.58l-0.99-1.139l-1.812,1.58l-0.961-1.107l1.813-1.577l-0.986-1.135l-1.812,1.572l-0.959-1.108  l1.807-1.57l-0.988-1.137l-1.804,1.567l-0.959-1.107l5.105-4.44l-0.989-1.138l-5.103,4.438l-0.959-1.108l1.794-1.561l-0.989-1.136  l-1.789,1.558l-0.537-0.623l9.087-9.996L88.348,84.447z"/>
</svg>