<svg xmlns="http://www.w3.org/2000/svg" xmlns:xlink="http://www.w3.org/1999/xlink" version="1.1" id="Layer_1" x="0px" y="0px" width="100px" height="100px" viewBox="0 0 100 100" enable-background="new 0 0 100 100" xml:space="preserve">
<path d="M60.298,92.034L63.306,95H36.733l3-2.966H60.298z M30,47.226l4.595,9.745h1.799l4.556,34.049h18.127l4.544-34.049h1.82  L70,47.226H30z M44.699,24.167l-10.346,5.888l-0.477,15.067h11.35L44.699,24.167z M52.718,45.122L50.55,28.485l1.227-2.064  l-0.733-1.174c-0.17,0.026-0.34,0.035-0.493,0.035h-0.409h-0.414h-0.41c-0.17,0-0.322-0.009-0.493-0.035L48.1,26.421l1.226,2.064  l-2.176,16.637H52.718z M54.778,45.122h11.345l-0.462-15.067l-10.334-5.888L54.778,45.122z M43.349,14.896  c-0.327,0.336-0.481,0.976-0.298,1.629c0.092,0.365,0.231,0.646,0.423,0.877c0.009,0.058,0.018,0.115,0.035,0.164  c0.113,0.423,0.401,0.703,0.707,0.681c0.85,2.922,2.969,5.92,5.262,5.92h1.081c2.255,0,4.385-2.998,5.266-5.92  c0.279,0.022,0.585-0.258,0.68-0.681c0.009-0.049,0.019-0.106,0.019-0.164c0.208-0.231,0.356-0.512,0.462-0.877  c0.19-0.787-0.025-1.581-0.509-1.809c-0.002-0.005-0.003-0.011-0.005-0.016l0.005-0.022c0.028-0.031,0.059-0.062,0.081-0.094  c0.701-0.966,0.208-4.747-0.915-6.816c-0.942-1.738-3.785-2.967-5.548-2.742c-1,0.127-1.486,0.701-1.71,1.103  C47.67,5.732,46.66,5.681,45.462,6.89c-0.974,0.981-1.687,2.545-2.049,4.019c-0.02,0.077-0.038,0.155-0.055,0.233  c-0.252,1.138-0.294,2.201-0.041,2.856c0.042,0.11,0.104,0.213,0.165,0.317l0.04,0.181C43.446,14.609,43.391,14.746,43.349,14.896z"/>
</svg>