<svg xmlns="http://www.w3.org/2000/svg" xmlns:xlink="http://www.w3.org/1999/xlink" version="1.1" id="Layer_1" x="0px" y="0px" width="100px" height="100px" viewBox="0 0 100 100" enable-background="new 0 0 100 100" xml:space="preserve">
<g>
	<defs>
		<rect id="SVGID_1_" x="5.5" y="10.958" width="90" height="78.542"/>
	</defs>
	<clipPath id="SVGID_2_">
		<use xlink:href="#SVGID_1_" overflow="visible"/>
	</clipPath>
	<path clip-path="url(#SVGID_2_)" fill="#000000" d="M95.468,33.598l-3.343-22.64l-22.33,6.415   c-1.605,0.461-2.531,2.138-2.073,3.743c0.463,1.605,2.122,2.543,3.747,2.072l11.104-3.189L62.286,51.757L49.532,34.944   l-15.72,33.403l-10.96-10.246l-12.31,21.796V11.35H5.5V89.5h84.453v-5.042h-75.04l9.424-16.688l11.409,10.67l15.005-31.876   L62.71,62.331l25.088-39.269l1.683,11.416c0.222,1.504,1.517,2.585,2.988,2.585c0.148,0,0.295-0.01,0.448-0.031   C94.566,36.789,95.71,35.25,95.468,33.598"/>
</g>
</svg>