<svg xmlns="http://www.w3.org/2000/svg" xmlns:xlink="http://www.w3.org/1999/xlink" version="1.1" id="Layer_1" x="0px" y="0px" width="100px" height="100px" viewBox="0 0 100 100" enable-background="new 0 0 100 100" xml:space="preserve">
<path d="M84.882,0H15.118c-2.042,0-3.697,1.655-3.697,3.696v92.588c0,2.041,1.655,3.697,3.697,3.697h69.764  c2.043,0,3.698-1.656,3.698-3.697V3.696C88.58,1.655,86.925,0,84.882,0z M20.222,20.34c0-5.952,4.826-10.777,10.778-10.777  c5.953,0,10.777,4.825,10.777,10.777c0,4.38-2.616,8.142-6.367,9.828v9.824L31,37.657l-4.41,2.335v-9.825  C22.839,28.48,20.222,24.72,20.222,20.34z M76.3,80.42H23.701v-3.478H76.3V80.42z M76.3,66.075H23.701v-3.478H76.3V66.075z   M76.3,51.729H23.701v-3.477H76.3V51.729z M76.3,37.384H47.827v-3.478H76.3V37.384z M76.3,23.04H47.827v-3.479H76.3V23.04z"/>
</svg>