<svg xmlns="http://www.w3.org/2000/svg" xmlns:xlink="http://www.w3.org/1999/xlink" version="1.1" id="Your_Icon" x="0px" y="0px" width="100px" height="100px" viewBox="0 0 100 100" enable-background="new 0 0 100 100" xml:space="preserve">
<circle cx="34.131" cy="14.3" r="8.728"/>
<polygon points="52,5 52,28.47 54.331,31.346 56,29.29 56,10 85,10 85,48 52,48 52,52 89,52 89,5 "/>
<path d="M67.926,27.687c-1.193-1.193-3.127-1.193-4.32,0l-9.078,9.145c0,0-9.7-10.831-12.187-10.831H25.383  c0,0-3.374-0.127-4.423,1.267l-9.683,12.828c-0.849,1.129-0.854,2.661-0.012,3.795l8.848,12.386C20.672,57.027,21,57.451,22,57.535  v33.284c0,2.199,1.801,3.982,4,3.982s4-1.783,4-3.982V62h7v28.819c0,2.199,1.801,3.982,4,3.982c2.199,0,4-1.783,4-3.982V36.294  l7.159,6.95c0.597,0.597,1.483,0.895,2.265,0.895c0.782,0,1.616-0.298,2.212-0.895L67.9,32.006  C69.093,30.814,69.119,28.879,67.926,27.687z M17.074,41.981L22,35.435v13.176L17.074,41.981z"/>
</svg>